<?xml version="1.0" encoding="utf-8" ?><svg xmlns="http://www.w3.org/2000/svg" xmlns:xlink="http://www.w3.org/1999/xlink" width="3647" height="3435" viewBox="-40 -39 3647 3435"><path fill="#FFFFFF" d="M1988.19 753.896C2495.28 720.944 2933.03 1105.41 2965.8 1612.52C2998.57 2119.63 2613.94 2557.24 2106.82 2589.82C1599.96 2622.39 1162.62 2238.01 1129.87 1731.16C1097.12 1224.31 1481.35 786.83 1988.19 753.896ZM2068.93 2553.69C2555.9 2542.04 2941.25 2137.87 2929.69 1650.9C2918.13 1163.92 2514.03 778.501 2027.05 789.978C1539.95 801.459 1154.41 1205.68 1165.98 1692.78C1177.55 2179.87 1581.84 2565.34 2068.93 2553.69Z"/><path fill="#FFFFFF" d="M2143.18 1935.5C2205.38 1841.63 2319.58 1741.11 2430.24 1716.89C2526.06 1695.93 2622.28 1718.16 2704.04 1770.12C2685.94 1763.88 2667.62 1758.32 2649.11 1753.42C2420.46 1693.45 2236.17 1839.68 2148.26 2040.43C2079.66 2197.06 2039.58 2304.61 1884.5 2395.42C1853.19 2413.35 1827.25 2424.99 1794.13 2438.42C1957.92 2494.16 2135.37 2495.31 2299.88 2441.7C2504.16 2374.29 2673.2 2228.34 2769.68 2036.07C2866.38 1843.16 2882.43 1619.73 2814.3 1414.98C2746.28 1211.24 2600.25 1042.77 2408.23 946.513C2315.91 900.36 2219.72 867.38 2115.88 900.678C2053.03 920.832 2008.44 972.981 1980.75 1031.3C1914.46 1170.89 1954.31 1341.87 2001.27 1480.65C1988.69 1466.72 1976.13 1452.96 1962.53 1440C1833.3 1316.86 1580.25 1323.04 1449.63 1441.34C1403.41 1482.85 1375.77 1541.16 1372.89 1603.22C1371.3 1644.35 1381.53 1672.17 1406.77 1703.57C1384.21 1651.2 1380.06 1606.83 1401.82 1553C1419.52 1509.21 1446.35 1470.62 1485.78 1444.94C1664.37 1328.58 1920.96 1368.51 2007.29 1578.15C2047.58 1675.98 2071.6 1793.35 2060.16 1899.21C2050.26 2011.79 2015 2119.02 1925.26 2193.19C1845.01 2259.5 1727.53 2298.98 1623.19 2288.85C1565.12 2283.21 1532.03 2268.5 1481.79 2241.57C1493.23 2252.76 1527.35 2287.16 1539.69 2293.94C1584.26 2318.44 1657.78 2332.22 1707.4 2331.38C1815.49 2329.56 1911.18 2280.72 1986.02 2204.89C2083.11 2106.5 2100.39 1960.92 2099.48 1828.97C2098.63 1705.58 2062.92 1587.5 2001.27 1480.65C2002.69 1470.63 2001.46 1446.33 2000.99 1434.1C1994.46 1264.06 2082.51 1100.45 2268.37 1095.05C2307.25 1093.92 2337.87 1103.81 2366.44 1132.24C2253.01 1068.84 2112.07 1163.75 2068.14 1273.56C2007.67 1424.7 2080.62 1531.14 2114.42 1671.62C2135.34 1757.97 2145.01 1846.67 2143.18 1935.5ZM1882.96 2158.68C1949.81 2089.09 1996.61 2001.2 1997.64 1901.96C1998.14 1853.33 1943.65 1715.2 1917.07 1674.11C1857.61 1756.91 1788.04 1863.55 1805.43 1969.68C1811.34 2005.77 1856.26 2135.91 1882.96 2158.68ZM1519.27 1204.6C1474.94 1212.23 1431.55 1224.58 1389.83 1241.42C1447.08 1292.19 1506.72 1340.11 1585.75 1335.86C1629.03 1329.95 1671.11 1317.26 1710.45 1298.26C1661.74 1243.12 1596.12 1197.62 1519.27 1204.6ZM1618.57 1024.64C1660.33 1227.31 1708.42 1301.52 1918.44 1347.32C1914.35 1262.73 1884.12 1171.62 1819.91 1113.14C1776.87 1073.94 1675.81 1041.15 1618.57 1024.64ZM1571.1 2017.84C1638.26 2161.26 1686.26 2196.83 1843.68 2195.94C1796.2 2050.6 1713.9 2020.22 1571.1 2017.84ZM1757.99 1464.8C1637.74 1475.53 1588.46 1537.14 1513.6 1626.74C1510.83 1630.02 1508.1 1633.33 1505.41 1636.67C1558.26 1647.24 1609.49 1654.64 1663.65 1653.76C1756.24 1648.77 1797.82 1623.15 1861.66 1552.11C1879.85 1531.84 1896.77 1510.46 1912.32 1488.1C1865.05 1471.3 1808.36 1459.62 1757.99 1464.8Z"/><path fill="#FFFFFF" fill-opacity="0" d="M2001.27 1480.65C1954.31 1341.87 1914.46 1170.89 1980.75 1031.3C2008.44 972.981 2053.03 920.832 2115.88 900.678C2219.72 867.38 2315.91 900.36 2408.23 946.513C2600.25 1042.77 2746.28 1211.24 2814.3 1414.98C2882.43 1619.73 2866.38 1843.16 2769.68 2036.07C2673.2 2228.34 2504.16 2374.29 2299.88 2441.7C2135.37 2495.31 1957.92 2494.16 1794.13 2438.42C1827.25 2424.99 1853.19 2413.35 1884.5 2395.42C2039.58 2304.61 2079.66 2197.06 2148.26 2040.43C2236.17 1839.68 2420.46 1693.45 2649.11 1753.42C2667.62 1758.32 2685.94 1763.88 2704.04 1770.12C2622.28 1718.16 2526.06 1695.93 2430.24 1716.89C2319.58 1741.11 2205.38 1841.63 2143.18 1935.5C2145.01 1846.67 2135.34 1757.97 2114.42 1671.62C2080.62 1531.14 2007.67 1424.7 2068.14 1273.56C2112.07 1163.75 2253.01 1068.84 2366.44 1132.24C2337.87 1103.81 2307.25 1093.92 2268.37 1095.05C2082.51 1100.45 1994.46 1264.06 2000.99 1434.1C2001.46 1446.33 2002.69 1470.63 2001.27 1480.65Z"/><path fill="#FFFFFF" d="M2354.83 2096.79C2436.44 2094.66 2535.84 2137.49 2608.4 2173.49C2544.02 2218.83 2455.23 2281.53 2376.82 2291.71C2276.9 2295.84 2201.99 2272.49 2119.62 2214.62C2183.89 2160.58 2270.36 2104.71 2354.83 2096.79Z"/><path fill="#FFFFFF" d="M2401.81 1355.89L2403.55 1357.72C2412.44 1407.59 2411.27 1548.49 2390.62 1596.21C2353.04 1683.08 2275.68 1748.72 2190.11 1784.7C2178.37 1710.76 2174.19 1601.19 2207.93 1534.45C2244 1463.09 2334.86 1398.16 2401.81 1355.89Z"/><path fill="#FFFFFF" d="M2648.78 1498.83C2677.8 1497 2708.83 1498.95 2737.84 1500.53C2668.34 1613.57 2622.35 1681.17 2480.5 1689.01C2450.15 1690.44 2421.54 1686.13 2391.98 1680.08C2414.52 1639.47 2432.38 1610.04 2463.17 1574.48C2517.05 1512.25 2569.75 1503.6 2648.78 1498.83Z"/><path fill="#FFFFFF" d="M2235.1 1167.79C2235.87 1168.84 2236.63 1169.89 2237.4 1170.95C2248.73 1218.4 2264.71 1312.66 2254.55 1356C2235.52 1437.1 2180.06 1493.61 2114.95 1535.85C2098.76 1501.66 2089.14 1411.53 2092.06 1373.23C2098.31 1291.18 2174.99 1218.75 2235.1 1167.79Z"/><path fill="#FFFFFF" d="M2483.39 1844.72C2490.76 1843.87 2488.25 1842.72 2493.13 1845.57C2493.53 1852.36 2485.23 1870.29 2482.22 1877.05C2463.1 1919.96 2441.87 1975.88 2409.35 2009.97C2356.65 2065.23 2277.93 2084.39 2204.04 2087.06C2198.13 2086.99 2198.36 2087.17 2192.87 2085.13C2195.2 2052.59 2240.38 1967.6 2259.07 1941.49C2306.96 1874.61 2406.48 1856.01 2483.39 1844.72Z"/><path fill="#FFFFFF" d="M2563.06 1960.73C2609.25 1957.25 2669.91 1971.8 2713.78 1985.28C2664.1 2035.63 2620.2 2081.12 2549.57 2093.53C2494.83 2099.74 2449.36 2090.03 2399.8 2066.82C2441.34 2017.18 2496.34 1966.86 2563.06 1960.73Z"/><path fill="#FFFFFF" d="M1791.77 2782.87C1843.72 2780.07 1904.79 2776.76 1955.34 2787.97C2000.3 2797.94 2025.83 2843.32 1997.38 2882.85C1987.97 2895.92 1973.35 2903.29 1959.4 2910.44C1977.67 2949.36 2028.82 3028.8 2077.7 3027.78C2090.04 3022.59 2104.93 3001.42 2109.53 2989.52C2118.71 2965.81 2185.06 2813.01 2180.41 2799.65C2168.34 2788.3 2148.43 2789.37 2132.28 2782.67C2174.16 2780.83 2229.48 2781.59 2271.55 2782.58C2265.42 2785.18 2230.13 2793 2232.22 2800.23C2250.4 2863.22 2279.74 2929.16 2303.28 2991C2318.17 3030.1 2335.56 3025.24 2368.54 3037.42C2320.29 3039.15 2259.2 3038.81 2210.88 3037.37C2224.84 3031.87 2257.67 3027.82 2261.95 3012.86C2265.45 3000.61 2244.85 2950.86 2240.7 2938.04L2236.9 2935.31C2215.51 2934.45 2176.17 2934.21 2153.26 2935.7C2152.01 2936.85 2150.75 2937.99 2149.49 2939.14C2143.51 2959.57 2123.79 3003.64 2133.42 3020.2C2140.51 3032.4 2158.18 3029.63 2173.29 3037.71C2150.6 3037.82 2127.9 3038.1 2105.21 3038.54C2083.42 3039.18 2063.32 3041.27 2041.53 3038.95C1974.86 3031.86 1946.54 2982.45 1926.25 2925.14C1913.33 2926.65 1896.64 2927.27 1885.73 2933.4C1883.29 2938.92 1883.97 2936.62 1884.33 2943.15C1884.71 2956.92 1884.91 2989.09 1887.85 3001.07C1887.51 3034.72 1915.36 3027.52 1940.14 3037.38C1895.37 3039.39 1836.59 3038.47 1791.44 3037.54C1835.39 3017.36 1844.67 3040.28 1844.78 2967.67C1844.86 2914.24 1849.02 2856.18 1839.09 2803.56C1836.74 2791.08 1804.38 2787.51 1793.83 2783.65L1791.77 2782.87ZM1884.15 2909.71L1925.76 2914.49C1936.03 2907.8 1939.7 2905.54 1948.68 2896.65C1989.68 2837.22 1947.08 2796.91 1884.58 2794.1L1884.15 2909.71ZM2158.4 2915.86L2199 2915.86L2231.87 2915.85C2222.68 2891.89 2205.3 2842.6 2194.75 2821.34C2182.25 2852.7 2170.13 2884.2 2158.4 2915.86Z"/><path fill="#FFFFFF" d="M3238.66 2782.9C3277.54 2778.4 3370.52 2779.56 3408.51 2785.2C3534.33 2803.88 3567.05 2949.62 3457.68 3020.09C3408.31 3047.63 3367.01 3039.29 3313.47 3038.16C3284.67 3037.56 3254.22 3037.67 3225.3 3037.64C3241.67 3029.12 3263.48 3033.13 3276.87 3018.83C3291.27 3003.45 3287.72 2856.7 3285.47 2826.37C3281.76 2776.25 3256.38 2800.54 3240.59 2784.98C3239.91 2784.32 3239.31 2783.59 3238.66 2782.9ZM3329.88 2803.12C3326.63 2821.4 3325.53 2992.15 3329.31 3008.1C3352.38 3031.59 3390.19 3029.42 3418.39 3017.9C3474.08 2995.14 3486.38 2917.43 3463.58 2867.34C3441.58 2819.01 3384.35 2788.63 3332.23 2797.45C3330.31 2797.8 3330.24 2801.39 3329.88 2803.12Z"/><path fill="#FFFFFF" fill-opacity="0" d="M3329.31 3008.1C3325.53 2992.15 3326.63 2821.4 3329.88 2803.12C3333.16 2850.06 3335.79 2962.24 3329.31 3008.1Z"/><path fill="#FFFFFF" d="M2810.79 2783.73C2835.8 2780.18 2919.67 2782.07 2947.58 2782.59C2936.26 2787.38 2901.82 2792.32 2901.02 2806.22C2897.27 2871.42 2902.58 2951.63 2919.41 3014.82C2922.69 3027.12 2959.38 3033.02 2971.52 3036.81C2933.52 3040.29 2851.65 3038.36 2811.62 3037.5C2854.56 3018.4 2869.35 3039.7 2868.74 2975.96C2867.79 2933.35 2861.46 2886.19 2859.71 2841.9C2831.4 2898.21 2797.94 2951.04 2773.1 3008.68C2768.83 3018.57 2766.41 3031.09 2760.21 3038.66L2757.02 3038.81C2752.68 3032.19 2738.55 2990.11 2733.16 2978.21C2713.23 2934.18 2693.11 2889.99 2673.19 2845.95C2668.44 2885.17 2653.5 2975.67 2661.29 3015.43C2663.68 3027.61 2696.23 3032.33 2708.51 3036.57L2710.66 3037.33C2675.44 3038.97 2609.59 3039.16 2574.64 3036.98C2588.5 3031.55 2605.3 3030.77 2617.31 3021.5C2643.79 3001.08 2654.25 2859.44 2658.9 2819.89C2639.12 2781.56 2624.9 2797.92 2611.2 2782.89C2646.7 2780.25 2704.44 2781.99 2741.07 2782.49C2723.13 2790.17 2709.92 2787.29 2698.81 2802.47C2698.28 2812.46 2762.95 2949.62 2771.47 2968.52C2783.9 2946.02 2858.59 2816.66 2856.25 2802.42C2847.03 2790.06 2826.71 2787.89 2810.79 2783.73Z"/><path fill="#FFFFFF" d="M762.984 2783.59C785.915 2780.61 871.12 2781.6 895.949 2783.16C882.732 2787.82 859.299 2789.21 849.913 2799.99C834.107 2818.16 843.859 2995.32 842.465 3031.97C842.261 3037.33 842.851 3039.93 838.879 3043.68C833.78 3043.26 831.07 3042.62 827.225 3038.56C766.374 2974.41 708.282 2905.03 646.506 2841.96L644.468 2842.5L644.64 2851.19C644.523 2874.01 643.983 2985.83 647.837 3003.05C649.205 3034.15 678.984 3027.82 702.886 3037.34C674.23 3038.7 590.647 3039.45 565.722 3036.05C579.508 3032.26 605.841 3031.55 615.118 3020.01C629.178 3002.52 625.814 2849.49 625.962 2818.28C601.833 2791.96 594.446 2792.3 560.259 2783.74C582.709 2781 673.844 2780.77 696.361 2783.73C684.581 2787.13 670.085 2789.29 664.044 2799.34C672.383 2812.54 702.919 2844.64 714.624 2857.41C750.641 2896.77 786.987 2935.82 823.659 2974.57C822.957 2936.87 825.151 2840.38 812.937 2802.44C810.235 2794.05 774.991 2786.94 762.984 2783.59Z"/><path fill="#FFFFFF" d="M968.041 2782.69C1003.62 2781.66 1073.07 2780.31 1107.52 2783.17C1093.19 2787.81 1076.59 2788.25 1067.71 2800.41C1067.43 2823.47 1126.78 2950.14 1135.03 2981.77C1147.2 3028.45 1170.93 3021.81 1203.12 3037.72C1168.94 3037.95 1076.19 3040.45 1046.45 3035.99C1074.3 3029.49 1109.56 3027.82 1093.79 2986.84C1088.9 2974.13 1084.56 2960.24 1078.96 2947.88C1077.63 2941.89 1078.06 2943.62 1075.01 2938.03C1063.74 2932.94 993.595 2932.28 985.398 2938.62C980.805 2954.71 960.451 3004.31 966.278 3015.01C975.198 3031.4 997.476 3031.93 1010.35 3037.37C971.055 3038.62 918.691 3039.05 879.409 3037.37L881.521 3036.57C901.154 3029.24 922.501 3031.03 933.796 3010.65C961.881 2959.97 979.148 2903.42 1001.28 2849.94C1007.15 2835.76 1013.93 2818.7 1017.6 2803.87C1011.47 2788 983.616 2789.51 968.041 2782.69ZM994.61 2915.86L1033 2915.87L1067.7 2915.86C1055.77 2884.83 1043.63 2851.7 1030.66 2821.26C1019.64 2849.01 1002.98 2888.21 994.61 2915.86Z"/><path fill="#FFFFFF" d="M1607.25 2784.26C1591.29 2788.74 1562.33 2787.78 1552.49 2803.04C1540.52 2821.6 1546.27 2950.08 1553.98 2973.12C1559.76 2990.41 1570.7 3004.63 1587.25 3012.74C1607.93 3022.87 1639.55 3024.62 1661.23 3016.66C1678.03 3010.5 1690.3 2998.31 1697.06 2981.81C1707.74 2955.76 1708.28 2829.58 1695.79 2805.21C1690.19 2794.26 1667.44 2788.96 1656.49 2785.09L1656.57 2783.35C1669.1 2781.36 1682.24 2781.97 1695 2782.02C1722.4 2781.96 1754.21 2781.19 1781.14 2783.22C1767.66 2788.21 1746.7 2788.26 1736.63 2798.9C1706.96 2830.24 1747.24 2957.64 1698.48 3013.16C1679.98 3034.23 1652.81 3042.65 1625.6 3044.01C1593.59 3045.6 1554.63 3041.69 1530.38 3018.55C1492.37 2982.27 1506.05 2900.3 1505.53 2851.25C1504.62 2766.14 1483.16 2807.73 1457.71 2782.88C1479.4 2780.71 1588.79 2781.22 1607.25 2784.26Z"/><path fill="#FFFFFF" d="M3187.18 2777.09L3188.58 2776.56L3190.12 2778.91C3190.26 2794.45 3188.41 2829.57 3185.15 2844.17C3179.69 2810.4 3172.69 2797.75 3134.06 2798.77C3116.22 2799.25 3097.47 2799.46 3079.57 2799.51C3078.3 2832.5 3077.7 2865.51 3077.78 2898.53C3091.43 2898.11 3106.66 2897.94 3120.19 2898.91C3158.31 2901.61 3162.75 2889.83 3171.2 2856.9C3173.32 2883.91 3172.84 2930.42 3171.23 2957.41C3155.71 2910.5 3159.02 2912.56 3108.42 2916.07C3099.74 2916.68 3086.74 2916.14 3077.78 2916.08C3077.93 2936.22 3074.31 2992.13 3083.54 3007.54C3101.71 3037.91 3163.22 3020.32 3187.38 3003.95C3195.66 2995.65 3197.37 2987.66 3205.47 2979.28C3207.96 2987.7 3192.6 3027.38 3188.9 3038.06C3120.29 3038.1 3045.07 3039.64 2976.98 3037.35C2987.53 3032.51 2998.1 3032.33 3009.2 3029.73C3017.36 3027.81 3025.59 3024.63 3029.82 3016.96C3040.26 2998.03 3042.24 2825.55 3033.17 2804.86C3026.43 2789.48 2996.98 2787.91 2982.27 2783.23C3023.31 2779.66 3162.88 2788.01 3187.18 2777.09Z"/><path fill="#FFFFFF" d="M1194.62 2769.49C1195.29 2770.19 1195.97 2770.9 1196.65 2771.61L1199.35 2774.31C1207.43 2782.68 1224.07 2782.33 1235.52 2782.07C1299.73 2780.64 1365.83 2785.84 1429.5 2779.07C1431.81 2778.83 1442.92 2767.77 1445.07 2765.66L1422.97 2850.96C1420.88 2837.91 1424.49 2817.43 1417.32 2811.45C1402.37 2798.97 1348.19 2803.39 1327.96 2803.66L1327.15 2931.93C1327.16 2955.17 1326.31 2993.46 1330.81 3015.21C1343.11 3033.95 1364.87 3029.34 1385.17 3036.6C1360.24 3039.45 1255.4 3038.78 1227.89 3036.78C1246.06 3029.81 1263.82 3031.91 1277.96 3020.51C1291.81 2996.71 1286.18 2838.31 1285.91 2803.65C1267.45 2803.55 1248.4 2803.44 1229.99 2802.93C1195.16 2801.97 1188.21 2822.33 1174.39 2848.5C1176.29 2829.17 1188.84 2789.36 1194.62 2769.49Z"/><path fill="#FFFFFF" d="M2361.6 2785.25C2380.25 2780.24 2491.13 2780.55 2511.27 2784.2C2496.8 2787.61 2470.57 2788.74 2461.34 2800.83C2451.74 2813.41 2449.99 2980.32 2455.7 3003.36C2456.96 3008.44 2460.91 3012.01 2465.34 3014.59C2484.38 3025.7 2521.85 3025.35 2542.38 3019.13C2576.32 3008.84 2569.41 2987.07 2587.76 2974.23C2587.38 2988.85 2575.4 3022.54 2570.32 3038.06C2549.61 3038.06 2376.03 3039.32 2370.84 3036.45L2370.89 3033.32C2388.53 3028.86 2409.14 3027.19 2410.06 3004.62C2414.69 2985.66 2413.53 2934.01 2413.41 2913.17L2413.41 2896.33C2413.64 2871.62 2414.44 2830.68 2410.61 2806.9C2403.89 2787.07 2380.05 2788.18 2361.6 2785.25Z"/><path fill="#FFFFFF" fill-opacity="0.96862745" d="M1178.47 3161.59L1183.57 3165.35C1192.73 3185.46 1160.67 3221.35 1144.89 3231.55C1131.44 3240.24 1137.55 3273.7 1146.99 3283.58C1161.82 3285.67 1163.41 3270.77 1175.14 3266.96L1175.98 3269.62C1163.78 3297.43 1146.52 3283.59 1139.26 3285.52C1138.19 3294.27 1136.96 3301.77 1135.37 3310.45C1132.58 3320.45 1119.23 3353.63 1104.94 3346.18C1087.84 3312.17 1140.51 3180.79 1178.47 3161.59Z"/><path fill="#FFFFFF" fill-opacity="0.98039216" d="M2562.34 3163.31L2567.31 3166.48C2579.56 3190.05 2545.18 3232.43 2527.34 3246.77C2522.42 3261.63 2512.9 3288.62 2525.71 3300.63C2535.75 3301.77 2544.27 3296.42 2547.82 3287.07C2537.49 3272.65 2525.25 3250.57 2550.72 3242.82C2570.96 3248.58 2562.2 3270.66 2557.29 3285.36C2580.67 3285.56 2574.59 3272.91 2586.38 3267.13C2586.27 3274.84 2586.59 3269.85 2583.86 3275.31C2576.64 3289.69 2565.56 3283.06 2556.46 3289.16C2549.04 3294.14 2540.78 3308.33 2530.21 3308.96C2523.65 3309.35 2515.47 3307.28 2511.18 3301.98C2507.13 3296.98 2506.06 3288.17 2506.64 3282.12C2509.99 3247.54 2536.81 3185.44 2562.34 3163.31Z"/><path fill="#FFFFFF" d="M2083.23 3163.79C2152.26 3155.73 2086.74 3276.53 2091.79 3302.14C2115.52 3321.59 2147.61 3226.96 2154.72 3222.92L2158.36 3224.46C2167.06 3246.13 2134.55 3279.18 2142.17 3302.08C2147.92 3306.53 2144.48 3305.12 2153.68 3304.16L2156.7 3306.77C2146.84 3311.76 2137.45 3313.25 2128.83 3305.38C2124.16 3295.11 2129.69 3294.71 2127.12 3286.96C2115.29 3298.23 2101.62 3312.53 2084.88 3313.03C2054.5 3294.7 2131.93 3185.55 2086.09 3166.69L2083.23 3163.79Z"/><path fill="#FFFFFF" fill-opacity="0.97647059" d="M2954.8 3232.24C2962.17 3231.6 2966.33 3230.44 2972.95 3233.65L2973.68 3237.69C2963.89 3241.13 2951.93 3242.93 2943.27 3248.4C2932.77 3255.04 2923 3278.76 2932.39 3288.61C2950.31 3287.37 2960.16 3259.41 2974.17 3245.21L2976.2 3247.24C2973.66 3267.61 2969.86 3277.31 2963.24 3296.4C2976.62 3287.81 2981.4 3280.16 2992.9 3270.19C2990.87 3280 2982.2 3286.78 2974.92 3293.32L2961.14 3301.9C2954.74 3315.81 2937.49 3356.23 2916.69 3341.96C2911.4 3321.16 2935.36 3310.96 2950.25 3303.28C2953.39 3294.2 2956.29 3284.27 2959.18 3275.04C2949.66 3286.37 2942.46 3297.18 2926.38 3294.84C2922.78 3292.4 2920.66 3292.11 2919.17 3288.2C2908.58 3260.34 2935.66 3241.2 2954.8 3232.24Z"/><path fill="#FFFFFF" d="M2483.7 3162.93C2517.34 3168.96 2453.94 3255.03 2444.35 3265.97C2440.5 3270.37 2438.42 3292.24 2449.34 3295.46C2466.79 3288.36 2466.49 3275.37 2476.92 3266.84L2477.85 3269.06C2461.69 3299.54 2428.33 3326.77 2431.17 3271.23C2432.71 3241.06 2462.94 3185.6 2483.7 3162.93Z"/><path fill="#FFFFFF" d="M2403.86 3162.9C2408.69 3163.8 2406.36 3163.04 2410.55 3166.7C2427.52 3208.7 2325.98 3288.16 2371.26 3294.89C2385.85 3288.92 2388.85 3273.53 2396.94 3266.85L2397.94 3269.04C2393.15 3278.14 2368.01 3316.02 2357.39 3300.37C2334.42 3266.5 2382.29 3186.43 2403.86 3162.9Z"/><defs><linearGradient id="gradient_0" gradientUnits="userSpaceOnUse" x1="1570.3752" y1="3243.793" x2="1596.1021" y2="3250.3284"><stop offset="0" stop-color="#FFFFFF" stop-opacity="0.92941177"/><stop offset="1" stop-color="#FFFFFF"/></linearGradient></defs><path fill="url(#gradient_0)" d="M1567.64 3255.36L1569.53 3253.24C1585.71 3234.82 1590.75 3219.65 1597.19 3196.52C1600.5 3184.64 1604.46 3167.52 1617.42 3162.92L1621.22 3163.99L1623.61 3169.12C1618.23 3183.33 1613.86 3190.44 1608.32 3206.35C1595.96 3241.84 1593.31 3310.13 1556.57 3326.93C1555.14 3327.57 1553.7 3328.19 1552.25 3328.78C1548.22 3327.67 1542.38 3326.67 1538.13 3325.8C1578.39 3318.96 1580.7 3271.05 1587.59 3237.35C1582.21 3245.9 1577.37 3251.36 1570.94 3259.05L1567.64 3255.36Z"/><path fill="#FFFFFF" fill-opacity="0.97647059" d="M2652.66 3229.8C2663.11 3228.68 2667.65 3228.21 2674.61 3236.76C2676.2 3255.72 2645.58 3273.83 2629.18 3276.72L2626.94 3280.16C2627.17 3287.95 2627.43 3287.68 2631.08 3294.16C2651.4 3308.05 2672.7 3280.23 2682.43 3265.6L2683.1 3268.58C2674.23 3304 2606.99 3324.95 2617.73 3268.82C2620.99 3251.78 2637.89 3238.32 2652.66 3229.8Z"/><path fill="#FFFFFF" fill-opacity="0.98039216" d="M2285.15 3230.32C2291.54 3229.2 2292.6 3229.41 2298.91 3229.63C2305.36 3233.21 2305.04 3233.55 2308.7 3239.66C2309.53 3266.84 2268.39 3267.49 2259.93 3283.09C2260.24 3287.37 2260.18 3290.44 2264.34 3293.15C2287.05 3307.95 2306.58 3280.31 2315.83 3265.82C2321.44 3272.54 2300.99 3291.12 2295.98 3295.2C2273.29 3313.7 2242.69 3299.72 2251.19 3268.94C2256.19 3250.85 2269.75 3239.67 2285.15 3230.32ZM2269.11 3269.98C2279.68 3263.9 2298.51 3252.39 2298.91 3238.9C2294.49 3234.02 2297.31 3235.71 2289.35 3235.18C2278.15 3243.97 2270.02 3253.14 2264.3 3266.33L2264.58 3270.44L2269.11 3269.98Z"/><path fill="#FFFFFF" d="M1519.1 3166.52C1529.48 3163.08 1535.63 3160.78 1545.7 3165.74C1566.46 3187.35 1528.7 3236.39 1547.2 3258.35C1556.12 3261.45 1559.55 3259.56 1567.64 3255.36L1570.94 3259.05C1563.25 3264.99 1549.03 3270.97 1539.26 3268.3C1513.2 3249.11 1549.2 3195.04 1536.21 3171.34C1529.31 3167.36 1531.8 3168.51 1522.2 3169.7L1519.1 3166.52Z"/><path fill="#FFFFFF" fill-opacity="0.94509804" d="M1663.16 3294.4C1666.74 3293.08 1682.27 3286.22 1682.04 3281.8C1681.36 3268.42 1666.86 3240.63 1682.62 3230.09C1725.48 3221.98 1693.35 3273.16 1695.71 3279.12C1703.51 3280.68 1713.21 3273.02 1720.36 3268.49L1721.23 3270.85C1716.22 3280.86 1699.62 3283.93 1689.41 3284.34C1682.92 3288.67 1678.99 3293.67 1672.95 3297.66C1668.87 3295.82 1667.51 3295.62 1663.16 3294.4Z"/><path fill="#FFFFFF" fill-opacity="0.94901961" d="M1221.28 3294.42C1224.83 3293.07 1240.21 3286.05 1239.94 3281.71C1239.03 3266.88 1224.72 3242.31 1240.62 3229.99C1281.32 3222.76 1252.86 3267.91 1255.15 3279.6C1261.51 3281.87 1268.11 3275.58 1272.8 3271.55L1278.03 3267.14L1278.79 3270.07C1270.11 3284.2 1264.13 3282.21 1248.95 3283.01C1242.17 3287.89 1236.46 3293.96 1230.77 3297.64C1226.78 3295.79 1225.54 3295.63 1221.28 3294.42Z"/><path fill="#FFFFFF" fill-opacity="0.96862745" d="M2153.68 3304.16C2181.53 3278.95 2205.6 3239.21 2210.92 3200.77C2213.45 3182.55 2197.07 3178.07 2206.27 3168.48C2210.33 3168.38 2216.76 3169.41 2218.64 3172.72C2239.37 3209.1 2179.54 3290.3 2156.7 3306.77L2153.68 3304.16Z"/><path fill="#FFFFFF" fill-opacity="0.98823529" d="M1910.3 3299.42C1901.02 3300.34 1897.7 3300.67 1890.1 3295.71C1881.1 3277.11 1907.03 3260.93 1892.78 3243.65L1889.17 3244.59C1881.63 3251.88 1877.44 3260.4 1872.09 3269.51C1880.06 3252.33 1882.5 3225.8 1890.03 3220.51L1892.52 3222.14C1890.41 3237.74 1894.75 3235.11 1905.11 3245.87C1917.3 3258.54 1901.03 3273.58 1900.78 3289.73L1904.91 3293.89L1910.3 3299.42Z"/><path fill="#FFFFFF" d="M2740.86 3231.38C2751.62 3243.45 2722.7 3264.52 2725.73 3288.16C2730.38 3293.65 2727.5 3291.66 2735.15 3293.55C2750.7 3289.5 2752.57 3277.82 2763.19 3268.45L2762.44 3274.84C2755.87 3285.22 2745.2 3299.93 2731.38 3299.78C2726.8 3299.75 2722.5 3297.57 2719.78 3293.9C2706.4 3276.22 2724.33 3242.03 2740.86 3231.38Z"/><path fill="#FFFFFF" d="M2835.99 3244.39C2844.11 3241.81 2845.3 3240.84 2853.26 3242.54C2869.75 3255.22 2852.57 3275.08 2856.88 3292.21C2869.48 3296.73 2878.44 3272.24 2884.31 3271.09C2879.43 3287.34 2856.42 3312.38 2842.62 3291.67C2841.39 3273.4 2853.52 3265.88 2843.97 3253.85C2841.34 3253.21 2838.84 3252.41 2836.19 3252.2L2835.99 3244.39Z"/><defs><linearGradient id="gradient_1" gradientUnits="userSpaceOnUse" x1="1326.3772" y1="3264.312" x2="1348.1633" y2="3269.3506"><stop offset="0" stop-color="#FFFFFF" stop-opacity="0.96470588"/><stop offset="1" stop-color="#FFFFFF"/></linearGradient></defs><path fill="url(#gradient_1)" d="M1333.95 3236.01C1368.46 3257.37 1337.35 3269.33 1343.06 3293.48C1344.4 3294.62 1348.5 3297.95 1349.79 3299.35C1341.5 3299.91 1339.14 3300.69 1332.26 3296.56C1320.1 3275.74 1352.35 3260.65 1329.4 3240.43L1333.95 3236.01Z"/><path fill="#FFFFFF" fill-opacity="0" d="M644.64 2851.19C655.555 2867.99 650.594 2978.85 647.837 3003.05C643.983 2985.83 644.523 2874.01 644.64 2851.19Z"/><path fill="#FFFFFF" d="M2814.75 3273.07C2810.38 3279.88 2802.51 3294.31 2796.58 3297.83L2792.04 3296.13C2790.95 3283.78 2799.35 3251.32 2810.5 3244.61L2814.14 3246.63C2816.59 3254.05 2813.57 3261.46 2811.58 3269.28L2814.75 3273.07Z"/><path fill="#FFFFFF" d="M1774.9 3298.97C1765.35 3301.2 1764.94 3300.65 1757.89 3296.97C1746.47 3282.44 1755.87 3251.28 1768.59 3241.11L1771.82 3242.36C1773.81 3259.94 1753.5 3277.89 1769.74 3294.44L1774.9 3298.97Z"/><path fill="#FFFFFF" d="M1788.71 3273.96C1794.24 3262.28 1796.92 3254.94 1805.98 3245.7L1808.18 3246.02C1807.89 3260.94 1794.05 3289.91 1806 3294.78L1812.97 3298.68C1803.63 3300.91 1795.81 3303.5 1791.03 3293.85C1791.19 3284.06 1791.26 3283.26 1788.71 3273.96Z"/><path fill="#FFFFFF" d="M1230.77 3297.64C1220.46 3301.75 1217.36 3302.94 1207.98 3296.36C1199.67 3280.13 1213.2 3245.34 1228.46 3250.48C1222.91 3265.87 1211.02 3277.87 1221.28 3294.42C1225.54 3295.63 1226.78 3295.79 1230.77 3297.64Z"/><path fill="#FFFFFF" d="M1672.95 3297.66C1661.4 3302.03 1660.36 3303.42 1650.28 3296.01C1641.95 3279.2 1655.34 3244.26 1671.16 3250.79C1670.86 3251.29 1670.57 3251.79 1670.28 3252.29L1668.87 3254.81C1661.32 3268.14 1655.54 3280.06 1663.16 3294.4C1667.51 3295.62 1668.87 3295.82 1672.95 3297.66Z"/><path fill="#FFFFFF" fill-opacity="0" d="M985.398 2938.62C993.595 2932.28 1063.74 2932.94 1075.01 2938.03C1078.06 2943.62 1077.63 2941.89 1078.96 2947.88L1075.19 2947.88L1072.27 2941.86C1064.58 2938.02 1005.03 2943.45 985.398 2938.62Z"/><path fill="#FFFFFF" fill-opacity="0" d="M2149.49 2939.14C2150.75 2937.99 2152.01 2936.85 2153.26 2935.7C2176.17 2934.21 2215.51 2934.45 2236.9 2935.31L2240.7 2938.04C2228.36 2942.42 2163.81 2941.47 2149.49 2939.14Z"/><path fill="#FFFFFF" fill-opacity="0.96862745" d="M2086.09 3166.69C2070.1 3179.08 2074.14 3187.48 2066.87 3207.29C2061.19 3206.12 2063.86 3206.9 2058.74 3201.78C2054.12 3185.44 2070.39 3170.85 2083.23 3163.79L2086.09 3166.69Z"/><path fill="#FFFFFF" fill-opacity="0" d="M2410.61 2806.9C2414.44 2830.68 2413.64 2871.62 2413.41 2896.33L2410.46 2893.36C2405.9 2864.8 2405.39 2835.39 2410.61 2806.9Z"/><path fill="#FFFFFF" fill-opacity="0.96862745" d="M1519.1 3166.52L1522.2 3169.7C1512.75 3181.88 1510.37 3190.15 1510.82 3205.08L1510.92 3207.45L1506.22 3209.63L1502.48 3207.83C1494.4 3190.89 1505.86 3176 1519.1 3166.52Z"/><path fill="#FFFFFF" fill-opacity="0" d="M2410.06 3004.62C2408.11 2984.87 2403.25 2927.67 2413.41 2913.17C2413.53 2934.01 2414.69 2985.66 2410.06 3004.62Z"/><path fill="#FFFFFF" fill-opacity="0.98431373" d="M1552.25 3328.78C1536.81 3330.46 1517.2 3327.33 1514.28 3308.9C1517.3 3303.45 1519.14 3303.31 1524.76 3300.39C1527.78 3315.39 1526.55 3318.07 1538.13 3325.8C1542.38 3326.67 1548.22 3327.67 1552.25 3328.78Z"/><path fill="#FFFFFF" fill-opacity="0.98039216" d="M1329.4 3240.43C1325.69 3245.87 1319.65 3260.54 1312.23 3271.64C1320.37 3255.34 1321.24 3236.99 1329.06 3221.43L1332.27 3220.43L1333.3 3222.63C1332.7 3228.25 1332.06 3230.54 1333.95 3236.01L1329.4 3240.43Z"/><path fill="#FFFFFF" fill-opacity="0" d="M1884.33 2943.15C1895.64 2959.77 1889.95 2980.84 1887.85 3001.07C1884.91 2989.09 1884.71 2956.92 1884.33 2943.15Z"/><path fill="#FFFFFF" fill-opacity="0.90588236" d="M1343.06 3293.48C1356.44 3291.66 1364.31 3286.3 1372.18 3275.22C1374.08 3272.5 1375.92 3269.73 1377.7 3266.92L1379.89 3267.76C1378.81 3276.78 1367.86 3287.5 1360.79 3292.78C1357.35 3295.32 1353.66 3297.52 1349.79 3299.35C1348.5 3297.95 1344.4 3294.62 1343.06 3293.48Z"/><path fill="#FFFFFF" fill-opacity="0.88235295" d="M1904.91 3293.89C1921.69 3288.85 1927.37 3280.54 1937.17 3266.75L1939.05 3268.99C1936.47 3279.8 1919.74 3293.45 1910.3 3299.42L1904.91 3293.89Z"/><path fill="#FFFFFF" fill-opacity="0.81176472" d="M1806 3294.78C1822.26 3289.13 1827.14 3280.38 1835.99 3266.31L1838.41 3267.77C1837.96 3277.95 1821.07 3293.07 1812.97 3298.68L1806 3294.78Z"/><path fill="#FFFFFF" fill-opacity="0.89803922" d="M2811.58 3269.28C2820.72 3258.49 2824.87 3253.16 2835.99 3244.39L2836.19 3252.2C2824.95 3260.63 2823.45 3262.32 2814.75 3273.07L2811.58 3269.28Z"/><path fill="#FFFFFF" fill-opacity="0.88235295" d="M1769.74 3294.44C1779.36 3288.22 1781.99 3283.17 1788.71 3273.96C1791.26 3283.26 1791.19 3284.06 1791.03 3293.85L1787.87 3286.16C1781.51 3288.12 1780.25 3292.76 1774.9 3298.97L1769.74 3294.44Z"/></svg>